<svg xmlns="http://www.w3.org/2000/svg" width="24" height="24" viewBox="0 0 24 24" fill="none"><circle cx="12" cy="12" r="3" stroke="currentColor" stroke-width="1.7" stroke-linecap="round" stroke-linejoin="round"></circle><path d="M19.4 13a1.6 1.6 0 0 0 .3 1.8l.1.1a2 2 0 1 1-2.8 2.8l-.1-.1a1.6 1.6 0 0 0-2.7 1.1V20a2 2 0 1 1-4 0v-.2a1.6 1.6 0 0 0-2.7-1.1l-.1.1a2 2 0 1 1-2.8-2.8l.1-.1A1.6 1.6 0 0 0 4 13H4a2 2 0 1 1 0-4h.2A1.6 1.6 0 0 0 5.3 6.3l-.1-.1a2 2 0 1 1 2.8-2.8l.1.1A1.6 1.6 0 0 0 11 4.6V4a2 2 0 1 1 4 0v.2a1.6 1.6 0 0 0 2.7 1.1l.1-.1a2 2 0 1 1 2.8 2.8l-.1.1a1.6 1.6 0 0 0-.3 1.8V11a2 2 0 1 1 0 4h-.2z" stroke="currentColor" stroke-width="1.4" stroke-linecap="round" stroke-linejoin="round"></path></svg>